<?xml version="1.0" standalone="no"?>
<!DOCTYPE svg PUBLIC "-//W3C//DTD SVG 20010904//EN"
 "http://www.w3.org/TR/2001/REC-SVG-20010904/DTD/svg10.dtd">
<svg version="1.0" xmlns="http://www.w3.org/2000/svg"
 width="1920.000000pt" height="1080.000000pt" viewBox="0 0 1920.000000 1080.000000"
 preserveAspectRatio="xMidYMid meet">

<g transform="translate(0.000000,1080.000000) scale(0.100000,-0.100000)"
fill="#000000" stroke="none">
<path d="M1575 9696 c-174 -45 -295 -177 -327 -356 -29 -166 62 -354 216 -444
181 -106 427 -54 558 119 63 83 82 144 82 260 0 80 -4 111 -22 155 -44 111
-143 210 -252 251 -68 26 -187 33 -255 15z"/>
<path d="M14602 8815 c-79 -35 -141 -112 -156 -196 -6 -32 -11 -37 -41 -42
-118 -19 -215 -131 -215 -247 0 -50 30 -126 65 -167 54 -63 110 -85 238 -91
l107 -5 0 37 0 36 -97 0 c-116 0 -165 18 -209 75 -22 30 -29 50 -32 101 -4 54
-1 70 21 106 30 51 82 83 152 93 65 10 75 19 75 68 0 57 33 120 82 153 34 24
51 29 103 29 50 0 69 -5 103 -28 59 -39 82 -89 82 -181 0 -94 10 -106 89 -106
64 0 107 -22 145 -72 42 -58 19 -163 -47 -212 -25 -18 -45 -21 -153 -24 l-124
-4 0 -34 0 -34 90 0 c157 0 226 26 283 106 37 53 47 135 23 199 -31 79 -129
145 -215 145 -18 0 -21 6 -21 43 0 153 -109 268 -254 267 -34 -1 -76 -7 -94
-15z"/>
<path d="M1585 8714 c-234 -38 -441 -175 -584 -387 -82 -121 -153 -324 -168
-479 l-6 -68 847 0 846 0 0 53 c-1 74 -33 213 -74 313 -111 272 -325 474 -576
544 -74 20 -226 33 -285 24z"/>
<path d="M2689 8549 c-11 -23 -17 -45 -12 -50 4 -4 413 -227 908 -494 494
-267 902 -488 904 -491 3 -3 -7 -29 -23 -57 -15 -30 -26 -63 -24 -77 6 -46 34
-49 199 -24 82 12 157 28 165 34 25 22 14 62 -54 200 -67 134 -67 135 -101
135 -31 0 -38 -5 -68 -55 -18 -30 -38 -54 -44 -52 -6 1 -416 221 -910 487
-494 267 -903 485 -909 485 -5 0 -19 -19 -31 -41z"/>
<path d="M14582 8357 c-50 -51 -92 -97 -92 -103 0 -6 8 -18 18 -27 17 -16 22
-13 83 49 l64 65 5 -183 5 -183 33 -3 32 -3 0 188 0 187 68 -67 68 -68 22 24
22 23 -98 97 c-58 58 -105 97 -117 97 -12 0 -58 -37 -113 -93z"/>
<path d="M5444 7836 l-34 -34 0 -691 c0 -759 -2 -734 60 -766 25 -13 99 -15
505 -15 l475 0 38 34 37 34 3 504 c2 323 0 516 -7 538 -8 26 -63 87 -209 233
l-198 197 -318 0 -318 0 -34 -34z m850 -344 c-84 -2 -131 1 -140 9 -11 9 -14
43 -14 143 l0 131 140 -140 140 -140 -126 -3z m-444 -392 l0 -130 -25 0 c-14
0 -25 5 -25 12 0 9 -3 9 -12 0 -22 -22 -75 -14 -97 14 -31 39 -29 107 4 139
26 27 73 33 93 13 9 -9 12 -2 12 35 0 43 2 47 25 47 l25 0 0 -130z m193 40
c47 -37 44 -135 -4 -160 -36 -20 -94 -12 -120 16 -35 37 -33 108 5 141 34 29
84 30 119 3z m218 1 c24 -19 24 -20 5 -34 -17 -12 -22 -12 -34 -1 -19 20 -50
17 -62 -5 -14 -26 -13 -64 2 -79 18 -18 56 -15 67 6 9 16 11 16 27 0 17 -17
17 -18 -1 -38 -18 -20 -74 -27 -110 -14 -22 9 -45 57 -45 94 0 72 96 116 151
71z"/>
<path d="M5732 7108 c-13 -13 -16 -56 -6 -82 7 -19 45 -21 62 -4 7 7 12 26 12
43 0 34 -15 55 -40 55 -9 0 -21 -5 -28 -12z"/>
<path d="M5963 7112 c-18 -12 -26 -58 -13 -81 16 -30 57 -28 72 4 22 49 -19
103 -59 77z"/>
<path d="M14242 7854 c-53 -37 -52 -20 -52 -749 0 -745 -1 -728 61 -760 43
-23 956 -22 999 0 61 31 60 24 60 588 l0 514 -29 39 c-27 37 -156 165 -318
317 l-71 67 -314 0 c-268 0 -317 -2 -336 -16z m958 -356 c0 -5 -58 -8 -130 -8
-118 0 -130 2 -140 19 -5 11 -10 77 -10 148 l0 128 140 -140 c77 -77 140 -143
140 -147z m-570 -398 l0 -130 -25 0 c-14 0 -25 5 -25 12 0 9 -3 9 -12 0 -18
-18 -73 -14 -92 7 -37 41 -28 138 15 161 24 14 63 12 77 -2 9 -9 12 -2 12 35
0 43 2 47 25 47 l25 0 0 -130z m183 49 c51 -23 64 -113 22 -154 -18 -19 -35
-25 -69 -25 -58 0 -86 32 -86 97 0 76 63 114 133 82z m225 -5 c12 -8 22 -19
22 -23 0 -15 -32 -22 -46 -10 -8 6 -25 8 -38 5 -29 -7 -43 -54 -26 -85 12 -24
52 -28 70 -7 12 16 40 11 40 -7 0 -47 -100 -65 -137 -24 -11 12 -24 32 -28 45
-9 30 12 88 38 107 28 19 77 19 105 -1z m182 -529 l0 -235 -232 2 -233 3 -3
233 -2 232 235 0 235 0 0 -235z"/>
<path d="M14510 7101 c-25 -48 -3 -96 42 -89 19 2 24 10 26 41 2 21 -2 45 -9
53 -16 20 -46 17 -59 -5z"/>
<path d="M14741 7106 c-7 -8 -11 -32 -9 -53 2 -31 7 -39 26 -41 32 -5 52 15
52 52 0 50 -42 75 -69 42z"/>
<path d="M14780 6790 l0 -41 38 3 c35 3 37 5 37 38 0 33 -2 35 -37 38 l-38 3
0 -41z m60 0 c0 -25 -4 -30 -25 -30 -21 0 -25 5 -25 30 0 25 4 30 25 30 21 0
25 -5 25 -30z"/>
<path d="M14807 6803 c-13 -12 -7 -33 8 -33 8 0 15 9 15 20 0 20 -11 26 -23
13z"/>
<path d="M14873 6787 c-2 -23 -8 -44 -14 -46 -6 -2 -4 -10 6 -21 15 -16 15
-18 0 -24 -9 -3 -14 -10 -10 -15 3 -6 -9 -9 -30 -7 -20 2 -34 1 -31 -2 3 -3 1
-11 -5 -18 -11 -14 -4 -34 12 -34 5 0 9 10 9 22 0 40 14 1 19 -55 1 -5 10 -5
22 -2 18 6 20 4 14 -14 -4 -13 -2 -21 5 -21 8 0 8 -6 -1 -21 -9 -17 -8 -20 3
-16 7 2 12 10 10 16 -1 8 7 9 25 5 16 -4 30 -8 32 -10 2 -2 9 4 16 13 11 15
14 15 39 -4 18 -14 22 -23 14 -26 -8 -4 -7 -6 4 -6 10 -1 18 8 20 22 2 12 9
21 17 19 10 -2 12 4 7 22 -5 20 -3 24 9 20 22 -9 19 -47 -5 -62 -11 -7 -20
-19 -20 -27 0 -8 -6 -15 -13 -15 -17 0 -49 -34 -41 -43 3 -3 -2 -4 -13 -2 -10
2 -21 4 -25 4 -5 1 -8 18 -8 39 0 30 -4 38 -19 38 -16 0 -17 -4 -10 -24 12
-31 11 -52 -2 -52 -5 0 -8 4 -4 10 6 10 -15 50 -27 50 -5 0 -8 -7 -8 -15 0 -8
5 -14 11 -12 6 1 14 -4 17 -12 3 -10 0 -12 -13 -7 -15 5 -16 4 -6 -8 8 -10 9
-16 1 -21 -13 -8 -13 -25 0 -25 6 0 10 7 10 15 0 18 59 12 72 -7 6 -10 10 -10
18 2 8 13 13 13 31 2 17 -11 23 -11 29 -2 6 9 9 9 14 -1 3 -8 3 -4 0 9 -3 12
-1 22 4 22 5 0 8 18 7 40 -2 39 -2 40 16 24 11 -9 19 -27 19 -38 0 -34 14 -50
29 -33 17 21 50 10 44 -14 -4 -13 0 -19 12 -19 16 0 16 9 -3 59 -4 10 -1 12 9
6 8 -5 11 -4 6 1 -5 5 -16 9 -25 9 -11 0 -18 9 -19 25 -1 14 0 19 3 13 7 -16
31 -17 40 -1 4 7 3 8 -4 4 -7 -4 -12 -3 -12 2 0 5 -9 12 -20 15 -11 3 -20 2
-20 -3 0 -10 -31 -22 -38 -15 -3 3 3 12 14 21 14 11 15 14 3 11 -19 -6 -21 14
-2 31 11 10 13 9 13 -9 0 -15 4 -19 16 -15 8 3 12 2 9 -4 -3 -6 3 -10 14 -10
28 0 26 6 -11 41 -18 16 -26 29 -19 29 7 0 11 6 8 15 -4 8 -2 17 3 20 6 4 10
2 10 -4 0 -6 7 -7 17 -4 12 5 14 3 8 -8 -7 -12 -6 -12 6 -1 12 11 11 15 -3 26
-23 17 -23 26 -1 26 13 0 14 3 6 11 -6 6 -9 19 -5 28 3 8 -10 0 -29 -19 -19
-19 -34 -38 -32 -42 5 -10 -17 -21 -49 -25 -20 -2 -28 2 -28 12 0 10 10 15 28
15 19 0 38 10 55 30 38 42 35 54 -13 46 -29 -4 -40 -3 -40 6 -1 7 -7 -2 -15
-19 -8 -18 -19 -33 -25 -33 -6 0 -8 6 -4 13 6 10 4 10 -7 0 -16 -16 -39 -17
-39 -2 0 6 7 9 15 5 8 -3 15 -2 15 3 0 16 -13 21 -27 10 -16 -14 -16 -9 -3 25
6 16 6 27 0 31 -6 4 -10 -1 -10 -10 0 -9 -4 -14 -10 -10 -19 12 2 34 33 33 31
-1 62 -20 50 -32 -3 -3 -12 2 -20 12 -14 16 -14 16 -9 -1 3 -10 6 -22 6 -26 0
-4 7 -8 14 -8 8 0 14 3 14 6 -3 19 15 38 33 34 21 -6 25 7 7 25 -9 9 -16 8
-29 -4 -17 -15 -19 -14 -25 10 -7 27 -18 33 -30 15 -4 -8 -9 -7 -15 2 -8 12
-10 12 -18 0 -5 -7 -14 -11 -19 -7 -6 4 -28 8 -49 10 l-38 4 -2 -41z m37 23
c0 -6 11 -14 23 -19 13 -5 24 -16 24 -25 0 -8 -5 -12 -10 -9 -6 3 -7 1 -3 -5
4 -7 15 -12 24 -12 12 0 13 -3 4 -12 -14 -14 -16 -32 -2 -23 6 3 7 -1 4 -9 -3
-9 -10 -14 -14 -11 -5 3 -10 2 -13 -2 -2 -5 -2 -3 -1 4 2 6 -7 13 -19 15 -15
2 -22 10 -23 25 -1 13 -7 29 -14 38 -7 9 -8 15 -2 15 5 0 8 9 5 20 -3 11 0 20
6 20 6 0 11 -5 11 -10z m218 -97 c-2 -10 -13 -19 -26 -21 -12 -2 -22 -8 -22
-13 0 -5 -7 -9 -15 -9 -13 0 -14 4 -5 20 6 11 15 18 20 15 5 -3 15 1 22 9 18
21 30 20 26 -1z m-208 -35 c0 -4 -4 -8 -10 -8 -5 0 -10 -5 -10 -11 0 -7 10 -9
28 -5 15 4 34 8 43 9 9 1 15 6 12 12 -2 8 7 10 29 7 18 -3 27 -7 21 -9 -7 -3
-13 -9 -13 -14 0 -6 5 -7 10 -4 10 6 14 -15 11 -44 -2 -8 2 -10 11 -5 7 5 22
9 33 10 11 1 29 5 40 9 20 8 20 8 0 -14 -14 -16 -27 -21 -48 -18 -25 3 -31 -1
-39 -25 -5 -15 -16 -28 -24 -28 -15 0 -19 15 -6 23 4 2 2 2 -5 1 -7 -2 -15 1
-18 7 -4 5 -11 6 -17 3 -6 -4 -8 -2 -5 3 4 6 0 14 -9 17 -10 4 -13 13 -9 25 5
16 1 18 -27 16 -18 -1 -41 1 -50 6 -11 6 -18 5 -21 -4 -2 -6 -8 -9 -12 -5 -13
12 37 56 63 55 12 -1 22 -5 22 -9z m-35 -58 c3 -5 1 -10 -6 -10 -8 0 -8 -4 1
-15 7 -8 18 -15 24 -15 6 0 5 4 -3 9 -7 5 -10 14 -7 20 12 18 26 12 26 -10 0
-12 7 -27 16 -34 14 -10 12 -12 -13 -12 -20 0 -33 7 -39 21 -5 12 -19 22 -31
24 -18 3 -20 6 -10 17 14 17 33 19 42 5z m255 -140 c0 -11 -7 -20 -15 -20 -8
0 -15 9 -15 20 0 11 7 20 15 20 8 0 15 -9 15 -20z m-90 -28 c-1 -18 -18 -32
-33 -26 -25 9 -20 26 6 20 12 -3 16 -3 9 0 -6 3 -10 10 -6 15 6 10 24 3 24 -9z"/>
<path d="M14910 6752 c0 -12 19 -26 26 -19 2 2 -2 10 -11 17 -9 8 -15 8 -15 2z"/>
<path d="M14880 6669 c0 -5 5 -7 10 -4 6 3 10 8 10 11 0 2 -4 4 -10 4 -5 0
-10 -5 -10 -11z"/>
<path d="M14989 6638 c-1 -7 -1 -16 0 -20 0 -4 -8 -5 -19 -3 -26 5 -26 -7 0
-23 12 -7 20 -8 20 -2 0 14 27 13 32 -2 3 -9 6 -9 12 1 5 8 1 14 -13 18 -16 4
-20 11 -16 24 4 11 2 19 -4 19 -6 0 -12 -6 -12 -12z"/>
<path d="M15056 6820 c7 -7 19 -7 35 -1 23 9 22 10 -10 10 -24 1 -32 -2 -25
-9z"/>
<path d="M15120 6790 l0 -40 40 0 40 0 0 40 0 40 -40 0 -40 0 0 -40z m68 -2
c3 -25 0 -28 -27 -28 -26 0 -31 4 -31 23 0 30 9 39 35 35 13 -2 21 -12 23 -30z"/>
<path d="M15147 6804 c-14 -15 -6 -34 14 -34 14 0 19 5 17 17 -3 18 -20 27
-31 17z"/>
<path d="M15000 6750 c0 -5 5 -10 10 -10 6 0 10 5 10 10 0 6 -4 10 -10 10 -5
0 -10 -4 -10 -10z"/>
<path d="M14780 6708 c0 -10 3 -18 8 -19 4 0 15 -2 26 -4 13 -3 15 0 8 7 -6 6
-8 16 -5 24 3 8 -3 12 -16 11 -13 -1 -21 -8 -21 -19z"/>
<path d="M14835 6710 c3 -5 8 -10 11 -10 2 0 4 5 4 10 0 6 -5 10 -11 10 -5 0
-7 -4 -4 -10z"/>
<path d="M14783 6585 c0 -14 3 -28 8 -31 5 -3 9 6 9 20 0 14 -4 27 -9 30 -5 3
-8 -6 -8 -19z"/>
<path d="M15166 6601 c-3 -5 0 -11 7 -14 8 -3 14 1 14 9 0 16 -13 19 -21 5z"/>
<path d="M14810 6572 c0 -19 27 -38 38 -27 3 3 0 5 -6 5 -7 0 -12 6 -12 14 0
8 -4 18 -10 21 -5 3 -10 -3 -10 -13z"/>
<path d="M14800 6524 c0 -7 -6 -15 -12 -18 -7 -2 -4 -4 7 -2 11 1 28 7 39 12
17 10 16 12 -8 16 -17 4 -26 1 -26 -8z"/>
<path d="M14965 6520 c5 -15 4 -20 -4 -16 -7 5 -11 -2 -11 -18 0 -14 5 -28 12
-32 7 -5 8 -3 3 6 -4 7 -3 15 3 19 17 10 19 53 3 59 -10 3 -11 -1 -6 -18z"/>
<path d="M14780 6439 l0 -40 38 3 c35 3 37 5 40 41 l3 37 -40 0 -41 0 0 -41z
m60 6 c0 -20 -5 -25 -25 -25 -20 0 -25 5 -25 25 0 20 5 25 25 25 20 0 25 -5
25 -25z"/>
<path d="M14800 6445 c0 -8 7 -15 15 -15 8 0 15 7 15 15 0 8 -7 15 -15 15 -8
0 -15 -7 -15 -15z"/>
<path d="M11580 7595 l0 -116 113 3 112 3 0 110 0 110 -112 3 -113 3 0 -116z
m190 -5 l0 -80 -80 0 -80 0 0 80 0 80 80 0 80 0 0 -80z"/>
<path d="M11640 7595 l0 -45 50 0 50 0 0 45 0 45 -50 0 -50 0 0 -45z"/>
<path d="M11840 7695 c0 -8 7 -15 15 -15 8 0 15 7 15 15 0 8 -7 15 -15 15 -8
0 -15 -7 -15 -15z"/>
<path d="M11910 7695 c0 -10 10 -15 30 -15 28 0 30 -3 30 -35 l0 -35 50 0 c36
0 50 -4 50 -14 0 -7 9 -16 21 -19 12 -3 18 -10 14 -16 -3 -7 3 -11 15 -11 17
0 21 5 18 28 -3 24 1 27 30 30 24 2 32 -1 32 -12 0 -12 10 -16 35 -16 25 0 35
4 35 16 0 11 8 14 33 12 26 -2 33 -8 35 -30 3 -21 9 -27 30 -30 29 -3 45 -38
18 -38 -9 0 -16 -7 -16 -15 0 -8 7 -15 15 -15 8 0 15 7 15 15 0 8 7 15 15 15
10 0 15 11 15 35 0 24 5 35 15 35 8 0 15 -7 15 -15 0 -10 11 -15 35 -15 32 0
35 2 35 30 0 20 -5 30 -15 30 -8 0 -15 7 -15 15 0 11 -11 15 -36 15 -28 0 -35
3 -32 18 2 13 15 18 51 20 33 2 47 7 47 18 0 11 -17 14 -80 14 -64 0 -80 -3
-80 -15 0 -8 7 -15 15 -15 8 0 15 -7 15 -15 0 -9 7 -18 15 -21 19 -8 20 -34 1
-34 -7 0 -16 -9 -19 -21 -8 -31 -32 -17 -32 19 0 24 -4 32 -17 32 -14 0 -18 8
-18 35 0 32 -2 35 -30 35 -23 0 -30 -4 -30 -20 0 -11 -6 -20 -14 -20 -8 0 -16
-7 -20 -15 -8 -22 -36 -18 -36 5 0 11 7 20 15 20 8 0 15 7 15 15 0 10 -10 15
-30 15 -23 0 -30 -4 -30 -20 0 -11 -6 -20 -14 -20 -8 0 -16 -7 -20 -15 -3 -8
-12 -15 -21 -15 -8 0 -15 7 -15 15 0 11 -12 15 -46 15 -37 0 -47 4 -51 20 -4
16 -14 20 -49 20 -32 0 -44 -4 -44 -15z"/>
<path d="M12570 7595 l0 -115 110 0 110 0 0 115 0 115 -110 0 -110 0 0 -115z
m190 -5 l0 -80 -80 0 -80 0 0 80 0 80 80 0 80 0 0 -80z"/>
<path d="M12630 7595 l0 -45 50 0 50 0 0 45 0 45 -50 0 -50 0 0 -45z"/>
<path d="M11870 7640 c0 -20 -5 -30 -15 -30 -12 0 -15 -16 -15 -84 l0 -85 -32
-3 c-18 -2 -33 -7 -33 -13 0 -5 15 -11 33 -13 20 -2 32 -9 32 -18 0 -8 7 -14
15 -14 8 0 15 -9 15 -20 0 -16 -7 -20 -30 -20 -20 0 -30 -5 -30 -15 0 -8 -9
-15 -20 -15 -11 0 -20 -5 -20 -11 0 -6 9 -13 20 -16 11 -3 20 -12 20 -19 0 -8
7 -14 15 -14 10 0 15 10 15 30 0 29 1 30 50 30 38 0 50 -4 50 -15 0 -8 7 -15
15 -15 8 0 15 7 15 15 0 8 9 15 21 15 17 0 20 -5 17 -32 -3 -29 -7 -32 -33
-33 -26 0 -30 -4 -33 -32 -3 -33 -3 -33 43 -33 38 0 48 4 52 20 4 14 14 20 34
20 19 0 29 5 29 15 0 10 11 15 35 15 32 0 35 2 35 30 0 20 5 30 15 30 8 0 15
-7 15 -15 0 -11 16 -15 68 -17 52 -2 67 -6 67 -18 0 -11 -9 -14 -32 -12 -32 3
-33 2 -33 -32 0 -25 4 -36 15 -36 8 0 15 9 15 20 0 11 6 20 14 20 15 0 26 -21
26 -51 0 -32 19 -21 22 14 l3 32 83 3 c64 2 82 6 82 17 0 8 7 15 15 15 8 0 15
7 15 15 0 8 5 15 11 15 22 0 59 45 59 73 0 23 4 27 30 27 27 0 30 3 30 30 l0
30 -80 0 c-64 0 -80 -3 -80 -15 0 -10 -11 -15 -35 -15 l-35 0 0 51 c0 66 -24
62 -28 -4 -2 -33 -7 -47 -18 -47 -9 0 -14 -11 -14 -30 0 -20 5 -30 15 -30 8 0
15 7 15 15 0 8 7 15 15 15 8 0 15 -7 15 -15 0 -8 9 -15 20 -15 11 0 20 7 20
15 0 8 7 15 15 15 8 0 15 7 15 15 0 10 11 15 35 15 32 0 35 -3 35 -27 0 -43
-39 -73 -94 -73 -34 0 -46 4 -46 15 0 8 -7 15 -15 15 -8 0 -15 -5 -15 -10 0
-6 7 -13 15 -16 9 -4 15 -19 15 -38 0 -31 -1 -31 -47 -30 -49 1 -71 21 -34 31
26 7 31 63 6 63 -8 0 -15 -7 -15 -15 0 -10 -11 -15 -35 -15 -24 0 -35 5 -35
15 0 8 -7 15 -15 15 -8 0 -15 -7 -15 -15 0 -10 -11 -15 -35 -15 -33 0 -35 2
-35 35 0 28 4 35 20 35 11 0 20 -7 20 -15 0 -8 7 -15 16 -15 11 0 14 8 12 28
-2 22 -8 28 -35 30 -32 3 -33 4 -33 53 0 37 4 49 15 49 8 0 15 7 15 15 0 8 -7
15 -15 15 -8 0 -15 7 -15 15 0 8 -7 15 -15 15 -11 0 -15 -12 -15 -45 0 -48
-13 -58 -36 -27 -13 16 -15 16 -28 0 -16 -22 -36 -23 -36 -3 0 8 7 15 15 15 8
0 15 7 15 15 0 8 -7 15 -15 15 -8 0 -15 -7 -15 -15 0 -8 -7 -15 -15 -15 -8 0
-15 -7 -15 -15 0 -8 6 -15 14 -15 7 0 16 -9 19 -20 4 -16 14 -20 51 -20 34 0
46 -4 46 -15 0 -8 7 -15 15 -15 8 0 15 -7 15 -15 0 -8 -7 -15 -15 -15 -8 0
-15 7 -15 16 0 11 -8 14 -32 12 -28 -2 -34 -8 -36 -30 -2 -20 1 -28 13 -28 8
0 18 7 21 15 9 22 34 18 34 -5 0 -11 -7 -20 -15 -20 -10 0 -15 -10 -15 -30 0
-23 -4 -30 -20 -30 -11 0 -20 7 -20 15 0 8 -7 15 -15 15 -8 0 -15 7 -15 15 0
11 -12 15 -46 15 -37 0 -47 4 -51 20 -3 11 -12 20 -19 20 -8 0 -14 7 -14 15 0
8 7 15 15 15 8 0 15 -7 15 -15 0 -8 7 -15 15 -15 8 0 15 7 15 15 0 8 -7 15
-15 15 -8 0 -15 7 -15 15 0 8 -7 15 -15 15 -10 0 -15 10 -15 30 0 18 -6 33
-15 36 -8 4 -15 12 -15 20 0 8 -9 14 -20 14 -13 0 -20 7 -20 20 0 16 7 20 35
20 35 0 47 16 20 26 -9 4 -15 19 -15 35 0 22 -5 29 -20 29 -16 0 -20 -7 -20
-30z m38 -162 c-2 -21 -8 -33 -18 -33 -10 0 -16 12 -18 33 -3 27 0 32 18 32
18 0 21 -5 18 -32z m162 -198 c0 -20 -5 -30 -15 -30 -10 0 -15 10 -15 30 0 20
5 30 15 30 10 0 15 -10 15 -30z"/>
<path d="M12010 7560 c0 -5 14 -10 30 -10 17 0 30 5 30 10 0 6 -13 10 -30 10
-16 0 -30 -4 -30 -10z"/>
<path d="M12270 7540 c0 -19 5 -30 14 -30 11 0 16 -14 18 -47 2 -26 9 -48 16
-51 6 -2 12 3 12 12 0 9 7 16 15 16 8 0 15 9 15 20 0 11 -7 20 -15 20 -10 0
-15 10 -15 30 0 20 -5 30 -15 30 -8 0 -15 7 -15 15 0 8 -7 15 -15 15 -10 0
-15 -10 -15 -30z"/>
<path d="M18230 7520 c-24 -24 -25 -38 -4 -68 28 -41 104 -18 104 31 0 23 -36
57 -60 57 -11 0 -29 -9 -40 -20z"/>
<path d="M18670 7433 l0 -96 -25 23 c-34 32 -108 38 -155 12 -77 -41 -107
-190 -59 -290 40 -82 153 -105 213 -45 l26 26 0 -27 c0 -25 3 -26 50 -26 l50
0 0 260 0 260 -50 0 -50 0 0 -97z m-45 -129 c26 -10 45 -59 45 -114 0 -44 -5
-56 -29 -81 -32 -31 -45 -34 -86 -19 -57 22 -71 146 -23 197 21 23 59 30 93
17z"/>
<path d="M11970 7479 c0 -22 5 -32 20 -36 11 -3 20 -12 20 -20 0 -26 25 -7 28
21 3 21 -1 29 -17 33 -12 3 -21 12 -21 19 0 8 -7 14 -15 14 -10 0 -15 -10 -15
-31z"/>
<path d="M12240 7475 c0 -25 4 -35 13 -32 6 2 12 16 12 32 0 16 -6 30 -12 33
-9 2 -13 -8 -13 -33z"/>
<path d="M12500 7495 c0 -8 7 -15 15 -15 8 0 15 7 15 15 0 8 -7 15 -15 15 -8
0 -15 -7 -15 -15z"/>
<path d="M9187 7472 c-17 -19 -22 -68 -9 -88 36 -54 132 -27 132 38 0 59 -84
93 -123 50z"/>
<path d="M9750 7363 l0 -126 -22 20 c-38 34 -64 43 -123 43 -112 0 -179 -71
-192 -203 -15 -163 64 -286 185 -287 40 0 99 24 129 52 l23 21 0 -31 0 -32 60
0 60 0 0 335 0 335 -60 0 -60 0 0 -127z m-36 -192 c23 -24 29 -41 33 -93 7
-79 -12 -130 -57 -153 -39 -20 -92 -13 -120 15 -49 49 -49 182 0 232 41 40
105 40 144 -1z"/>
<path d="M17428 7463 c-25 -4 -28 -8 -28 -44 0 -37 -2 -39 -30 -39 -28 0 -30
-3 -30 -35 0 -32 2 -35 30 -35 l30 0 0 -104 c0 -58 4 -116 9 -129 23 -60 88
-87 161 -67 42 11 47 23 29 62 -9 20 -16 23 -49 20 -35 -4 -41 -1 -50 23 -5
14 -10 64 -10 111 l0 84 55 0 55 0 0 34 0 35 -52 3 -53 3 -3 43 c-3 44 -3 44
-64 35z"/>
<path d="M11580 7375 l0 -65 29 0 c16 0 31 -6 35 -15 7 -19 26 -20 26 -1 0 7
9 16 20 19 11 3 20 10 20 15 0 5 -9 12 -20 15 -11 3 -20 12 -20 21 0 9 8 16
20 16 11 0 20 7 20 15 0 8 7 15 15 15 10 0 15 -10 15 -30 0 -28 3 -30 35 -30
24 0 35 5 35 15 0 8 -9 15 -20 15 -11 0 -20 7 -20 15 0 8 -7 15 -15 15 -8 0
-15 7 -15 15 0 8 -7 15 -15 15 -8 0 -15 -7 -15 -15 0 -11 -12 -15 -50 -15 -38
0 -50 4 -50 15 0 8 -7 15 -15 15 -12 0 -15 -14 -15 -65z"/>
<path d="M12370 7424 c0 -9 5 -14 12 -12 18 6 21 28 4 28 -9 0 -16 -7 -16 -16z"/>
<path d="M12762 7428 c6 -18 28 -21 28 -4 0 9 -7 16 -16 16 -9 0 -14 -5 -12
-12z"/>
<path d="M16821 7410 c-9 -28 -11 -28 -69 -23 -103 9 -162 -36 -162 -126 0
-31 7 -49 31 -76 20 -23 26 -35 17 -35 -41 0 -62 -68 -32 -101 15 -16 14 -19
-15 -33 -59 -31 -49 -110 17 -143 50 -25 193 -25 239 0 61 33 85 103 54 161
-18 32 -49 44 -144 52 -55 5 -80 11 -84 21 -8 21 15 33 65 33 103 0 164 78
128 163 -14 36 -14 38 10 63 19 22 33 54 21 54 -1 0 -16 4 -34 9 -29 9 -32 7
-42 -19z m-40 -114 c26 -56 -23 -112 -76 -88 -20 9 -25 19 -25 50 0 47 14 62
57 62 26 0 36 -6 44 -24z m32 -303 c15 -9 6 -42 -15 -57 -49 -35 -158 -11
-158 34 0 31 29 41 100 34 36 -3 68 -8 73 -11z"/>
<path d="M12730 7395 c0 -8 -7 -15 -15 -15 -10 0 -15 -11 -15 -35 0 -28 -4
-35 -20 -35 -11 0 -20 -7 -20 -15 0 -8 -6 -15 -14 -15 -7 0 -16 -9 -19 -20 -3
-13 -10 -18 -21 -14 -9 3 -23 0 -32 -7 -14 -12 -14 -14 5 -21 35 -13 26 -38
-14 -38 -24 0 -35 -5 -35 -15 0 -8 -7 -15 -15 -15 -8 0 -15 7 -15 16 0 10 -7
14 -17 12 -10 -2 -17 -10 -15 -16 1 -8 -15 -12 -48 -12 -38 0 -50 -4 -50 -15
0 -9 -7 -18 -15 -21 -17 -7 -21 -64 -5 -64 6 0 10 6 10 14 0 7 9 16 20 19 11
3 20 12 20 21 0 23 27 20 33 -4 3 -14 14 -20 32 -20 18 0 29 6 32 20 4 14 14
20 34 20 19 0 29 5 29 15 0 10 11 15 35 15 24 0 35 5 35 15 0 8 6 15 14 15 7
0 16 9 19 21 6 24 30 21 35 -4 2 -10 -3 -17 -13 -17 -8 0 -18 -7 -21 -15 -4
-8 -12 -15 -20 -15 -8 0 -14 -7 -14 -15 0 -9 -7 -18 -15 -21 -8 -4 -15 -12
-15 -20 0 -8 -7 -14 -15 -14 -8 0 -15 -7 -15 -15 0 -8 -9 -15 -20 -15 -11 0
-20 7 -20 15 0 8 -7 15 -15 15 -8 0 -15 -7 -15 -15 0 -8 7 -15 15 -15 8 0 15
-7 15 -15 0 -10 -16 -15 -62 -17 -48 -2 -63 -7 -63 -18 0 -9 11 -16 28 -18 29
-4 37 -26 12 -36 -8 -3 -15 -10 -15 -16 0 -5 7 -10 15 -10 10 0 15 -11 15 -35
0 -32 -2 -35 -30 -35 -20 0 -30 -5 -30 -15 0 -8 -7 -15 -15 -15 -8 0 -15 -7
-15 -15 0 -7 -6 -18 -14 -22 -8 -4 -16 -19 -18 -33 -2 -20 -9 -26 -35 -28 -21
-2 -33 -9 -33 -18 0 -8 -6 -14 -14 -14 -7 0 -16 -9 -19 -20 -3 -11 -12 -20
-21 -20 -9 0 -16 -7 -16 -15 0 -8 -7 -15 -15 -15 -8 0 -15 -7 -15 -15 0 -8 -6
-15 -14 -15 -7 0 -16 -9 -19 -20 -3 -11 -10 -20 -17 -20 -7 0 -14 9 -17 20 -4
14 -14 20 -34 20 l-28 0 -3 112 c-2 78 -7 113 -15 116 -7 2 -13 -4 -13 -13 0
-9 -9 -19 -20 -22 -16 -4 -20 -14 -20 -49 0 -32 -4 -44 -15 -44 -8 0 -15 7
-15 15 0 8 -7 15 -15 15 -8 0 -15 -7 -15 -15 0 -8 7 -15 15 -15 10 0 15 -11
15 -35 0 -33 -2 -35 -35 -35 -24 0 -35 5 -35 15 0 8 -7 15 -15 15 -8 0 -15 -7
-15 -15 0 -8 7 -15 15 -15 8 0 15 -7 15 -15 0 -8 9 -15 20 -15 11 0 20 -7 20
-15 0 -10 10 -15 29 -15 20 0 30 -6 34 -20 3 -11 10 -20 16 -20 6 0 11 9 11
20 0 16 7 20 35 20 25 0 35 -4 35 -15 0 -9 7 -18 15 -21 8 -4 15 -12 15 -20 0
-9 12 -14 35 -14 24 0 35 5 35 15 0 11 12 15 50 15 38 0 50 -4 50 -15 0 -10
10 -15 30 -15 20 0 30 5 30 15 0 8 -7 15 -15 15 -8 0 -15 6 -15 14 0 9 -12 16
-32 18 -29 3 -33 7 -36 36 -3 24 1 32 13 32 9 0 19 9 22 20 3 11 12 20 19 20
8 0 14 7 14 16 0 9 7 14 16 12 8 -2 15 -7 15 -13 0 -5 9 -13 20 -17 13 -5 19
-17 19 -38 0 -27 3 -30 30 -30 20 0 30 5 30 15 0 8 -7 15 -15 15 -10 0 -15 11
-15 35 0 24 5 35 15 35 10 0 15 10 15 30 0 20 -5 30 -15 30 -8 0 -15 -7 -15
-16 0 -9 -7 -14 -17 -12 -25 5 -28 28 -4 28 17 0 21 6 21 35 0 24 5 35 15 35
8 0 15 -7 15 -15 0 -8 7 -15 15 -15 8 0 15 -7 15 -16 0 -9 9 -18 20 -21 18 -5
20 -14 20 -84 0 -64 3 -79 15 -79 10 0 15 -11 15 -35 0 -39 24 -50 33 -15 3
11 12 20 21 20 9 0 16 7 16 15 0 8 7 15 15 15 8 0 15 7 15 15 0 8 6 15 14 15
8 0 16 -7 20 -15 3 -9 18 -15 36 -15 25 0 31 -4 28 -17 -2 -10 -10 -17 -16
-16 -8 2 -12 -10 -12 -32 0 -35 0 -35 45 -35 33 0 45 4 45 15 0 8 -7 15 -15
15 -11 0 -15 12 -15 50 0 37 -4 50 -14 50 -9 0 -16 12 -18 33 -3 28 -7 32 -35
35 l-33 3 0 65 c0 57 2 64 20 64 16 0 20 -7 20 -35 0 -32 2 -35 30 -35 32 0
42 23 15 34 -9 3 -15 18 -15 36 0 28 -3 30 -35 30 -24 0 -35 5 -35 15 0 8 -7
15 -15 15 -10 0 -15 -10 -15 -30 0 -26 -3 -30 -29 -30 -21 0 -30 -6 -34 -21
-4 -16 -12 -20 -34 -17 -23 2 -28 8 -31 36 -3 30 -1 32 27 32 22 0 31 5 31 16
0 9 9 18 20 21 30 8 19 28 -18 31 -27 3 -32 0 -32 -17 0 -12 -7 -21 -15 -21
-8 0 -15 9 -15 20 0 11 7 20 15 20 8 0 15 7 15 15 0 8 -7 15 -15 15 -8 0 -15
7 -15 15 0 8 7 15 15 15 8 0 15 -7 15 -15 0 -31 29 -15 32 17 2 22 9 34 21 36
14 3 17 -4 17 -47 0 -50 1 -51 30 -51 20 0 30 5 30 15 0 8 9 15 20 15 11 0 20
-6 20 -14 0 -7 -9 -16 -20 -19 -39 -10 -20 -27 30 -27 38 0 50 4 50 15 0 8 -7
15 -15 15 -10 0 -15 10 -15 30 0 28 -3 30 -35 30 -28 0 -35 4 -35 20 0 16 7
20 34 20 25 0 35 -5 39 -20 3 -11 10 -20 16 -20 6 0 11 9 11 20 0 11 -7 20
-15 20 -8 0 -15 7 -15 15 0 8 7 15 15 15 8 0 15 7 15 15 0 10 -10 15 -30 15
-20 0 -30 -5 -30 -15 0 -8 -9 -15 -20 -15 -11 0 -20 -7 -20 -15 0 -8 -7 -15
-15 -15 -8 0 -15 7 -15 15 0 8 -7 15 -15 15 -8 0 -15 7 -15 15 0 10 10 15 30
15 28 0 30 3 30 35 0 33 2 35 35 35 24 0 35 -5 35 -15 0 -8 7 -15 15 -15 8 0
15 7 15 15 0 8 7 15 15 15 10 0 15 10 15 30 0 26 -3 30 -29 30 -20 0 -30 6
-34 20 -3 11 -11 19 -18 18 -7 -2 -15 5 -17 15 -3 14 4 17 47 17 39 0 51 4 51
15 0 8 -7 15 -15 15 -8 0 -15 6 -15 14 0 8 -7 16 -15 20 -8 3 -15 12 -15 21 0
8 7 15 15 15 8 0 15 7 15 15 0 8 -7 15 -15 15 -8 0 -15 -7 -15 -15z m30 -230
c0 -8 -7 -15 -15 -15 -8 0 -15 7 -15 15 0 8 7 15 15 15 8 0 15 -7 15 -15z
m-130 -465 l0 -50 -50 0 -50 0 0 50 0 50 50 0 50 0 0 -50z m-622 -63 l3 -47
-35 0 c-37 0 -51 22 -21 34 9 3 15 18 15 36 0 25 4 31 18 28 13 -2 18 -15 20
-51z m562 -32 c0 -8 -9 -15 -20 -15 -11 0 -20 7 -20 15 0 8 9 15 20 15 11 0
20 -7 20 -15z m-372 -32 c-4 -22 -22 -20 -26 1 -2 10 3 16 13 16 10 0 15 -7
13 -17z"/>
<path d="M12570 6705 c0 -8 7 -15 15 -15 8 0 15 7 15 15 0 8 -7 15 -15 15 -8
0 -15 -7 -15 -15z"/>
<path d="M13730 7370 c-20 -20 -21 -28 -15 -86 l7 -64 -94 0 c-51 0 -150 -3
-220 -7 l-128 -6 0 -54 0 -54 220 7 220 7 0 -59 c0 -68 19 -104 54 -104 24 0
238 162 265 200 25 37 5 62 -122 149 -67 47 -132 87 -144 89 -13 2 -30 -5 -43
-18z"/>
<path d="M17065 7376 c-123 -54 -140 -266 -27 -342 68 -46 179 -38 234 16 15
16 28 32 28 37 0 4 -14 16 -31 26 -30 17 -31 17 -61 -8 -32 -27 -67 -32 -101
-13 -30 16 -46 39 -47 66 0 22 2 22 119 22 99 0 120 3 125 16 9 24 -5 96 -25
130 -34 56 -143 81 -214 50z m114 -69 c14 -6 28 -24 32 -39 l7 -28 -79 0 c-43
0 -79 2 -79 5 0 17 26 55 44 63 28 14 46 14 75 -1z"/>
<path d="M17925 7376 c-37 -17 -80 -62 -94 -99 -28 -74 -1 -192 54 -235 81
-64 217 -44 260 38 l16 30 -35 17 c-35 16 -36 16 -56 -10 -36 -45 -102 -44
-137 2 -7 9 -13 44 -13 79 0 54 4 66 25 87 33 34 83 34 115 0 28 -30 28 -30
64 -1 25 21 27 26 16 46 -26 49 -148 76 -215 46z"/>
<path d="M11025 7366 c-16 -12 -19 -25 -17 -84 l3 -70 -221 -7 -220 -7 0 -55
0 -56 220 8 220 7 0 -59 c0 -37 6 -67 16 -81 29 -41 60 -29 189 76 122 99 141
126 114 158 -20 25 -255 184 -271 184 -8 0 -23 -6 -33 -14z"/>
<path d="M12300 7365 c0 -8 7 -15 15 -15 8 0 15 7 15 15 0 8 -7 15 -15 15 -8
0 -15 -7 -15 -15z"/>
<path d="M15917 7362 c-12 -13 -17 -37 -17 -84 l0 -66 -220 -7 -220 -8 0 -55
0 -55 219 8 218 7 6 -23 c4 -13 7 -45 7 -71 0 -51 20 -73 61 -66 11 2 73 46
139 98 96 76 120 100 120 120 0 14 -4 30 -8 36 -14 21 -255 184 -272 184 -9 0
-24 -8 -33 -18z"/>
<path d="M18220 7195 l0 -185 50 0 50 0 0 185 0 185 -50 0 -50 0 0 -185z"/>
<path d="M7147 7292 c-12 -13 -17 -37 -17 -85 l0 -67 -152 0 c-84 0 -183 -3
-220 -7 -74 -6 -76 -9 -62 -80 l6 -29 219 4 219 5 0 -66 c0 -60 2 -68 25 -83
34 -22 44 -17 180 91 113 89 132 113 115 145 -14 27 -251 190 -276 190 -11 0
-28 -8 -37 -18z"/>
<path d="M11710 7295 c0 -8 -6 -15 -14 -15 -7 0 -16 -9 -19 -21 -3 -12 -10
-18 -17 -14 -7 4 -14 -2 -17 -14 -3 -12 -12 -21 -19 -21 -8 0 -14 -7 -14 -15
0 -8 -7 -15 -15 -15 -8 0 -15 -7 -15 -15 0 -8 7 -15 15 -15 8 0 15 -7 15 -15
0 -10 10 -15 29 -15 28 0 30 2 33 48 2 34 7 47 18 47 11 0 16 -13 18 -47 2
-32 8 -48 16 -48 8 0 16 -9 19 -21 4 -16 12 -20 33 -17 33 4 43 23 14 31 -11
3 -20 12 -20 21 0 13 11 16 50 16 36 0 50 -4 50 -14 0 -7 9 -16 20 -19 11 -3
20 -12 20 -21 0 -12 -10 -16 -35 -16 -24 0 -35 -5 -35 -15 0 -11 -12 -15 -50
-15 -38 0 -50 4 -50 15 0 8 -7 15 -15 15 -8 0 -15 -7 -15 -15 0 -8 7 -15 15
-15 10 0 15 -10 15 -27 0 -31 43 -79 60 -68 17 10 11 25 -10 25 -13 0 -20 7
-20 20 0 16 7 20 35 20 33 0 35 -2 35 -35 0 -24 -5 -35 -15 -35 -8 0 -15 -7
-15 -15 0 -10 10 -15 30 -15 20 0 30 -5 30 -15 0 -10 11 -15 35 -15 28 0 35
-4 35 -20 0 -17 7 -20 50 -20 38 0 50 -4 50 -15 0 -8 7 -15 15 -15 10 0 15 11
15 35 0 24 5 35 15 35 8 0 15 7 15 15 0 10 11 15 35 15 24 0 35 -5 35 -15 0
-8 6 -15 14 -15 7 0 16 -9 19 -20 3 -11 12 -20 21 -20 9 0 16 -7 16 -15 0 -8
7 -15 16 -15 32 0 10 -35 -24 -38 -49 -5 -34 -26 21 -30 l47 -3 0 65 0 66 -31
0 c-22 0 -32 5 -36 20 -3 11 -12 20 -19 20 -8 0 -14 7 -14 15 0 8 -7 15 -15
15 -8 0 -15 7 -15 15 0 8 -6 15 -14 15 -8 0 -16 -7 -20 -15 -7 -19 -36 -20
-36 -1 0 7 9 16 21 19 31 8 18 31 -19 35 -20 2 -32 9 -32 18 0 8 -7 14 -15 14
-10 0 -15 11 -15 35 0 24 5 35 15 35 10 0 15 10 15 30 0 20 -5 30 -15 30 -8 0
-15 -7 -15 -15 0 -11 -12 -15 -50 -15 -38 0 -50 4 -50 15 0 8 -7 15 -15 15 -8
0 -15 -7 -15 -15 0 -8 -9 -15 -20 -15 -11 0 -20 7 -20 15 0 11 -12 15 -45 15
-31 0 -47 -5 -51 -15 -12 -30 -34 -16 -34 20 0 33 2 35 35 35 38 0 47 15 15
25 -11 3 -20 13 -20 21 0 8 -7 14 -15 14 -8 0 -15 7 -15 15 0 8 -7 15 -15 15
-8 0 -15 -7 -15 -15z m30 -35 c0 -13 -5 -18 -15 -14 -8 4 -15 12 -15 20 0 8 7
14 15 14 8 0 15 -9 15 -20z m268 -227 l3 -83 29 0 c20 0 30 -5 30 -15 0 -10
-11 -15 -35 -15 -24 0 -35 5 -35 15 0 8 -7 15 -15 15 -8 0 -15 -7 -15 -15 0
-10 -10 -15 -30 -15 -27 0 -30 3 -30 30 0 23 -4 30 -20 30 -13 0 -20 7 -20 20
0 11 -7 20 -15 20 -8 0 -15 7 -15 15 0 8 7 15 15 15 8 0 15 -7 15 -15 0 -8 9
-15 20 -15 15 0 20 7 20 29 0 16 6 31 15 35 8 3 15 13 15 21 0 12 8 15 33 13
l32 -3 3 -82z"/>
<path d="M11910 7000 c0 -17 5 -21 28 -18 16 2 27 9 27 18 0 9 -11 16 -27 18
-23 3 -28 -1 -28 -18z"/>
<path d="M8070 7113 c0 -159 3 -193 18 -222 46 -92 178 -110 249 -34 l33 34 0
-35 0 -36 60 0 60 0 0 240 0 240 -59 0 -59 0 -4 -165 c-3 -161 -4 -165 -29
-190 -36 -36 -87 -43 -122 -15 l-27 21 0 175 0 174 -60 0 -60 0 0 -187z"/>
<path d="M8622 7108 c3 -172 5 -197 23 -228 50 -85 191 -94 252 -16 27 34 33
33 33 -9 l0 -35 55 0 55 0 0 240 0 241 -57 -3 -58 -3 -5 -162 c-5 -158 -6
-163 -31 -188 -14 -14 -41 -28 -61 -31 -30 -5 -41 -2 -62 19 -26 26 -26 27
-26 197 l0 170 -61 0 -61 0 4 -192z"/>
<path d="M9180 7060 l0 -240 60 0 60 0 0 240 0 240 -60 0 -60 0 0 -240z"/>
<path d="M11610 7265 c0 -8 7 -15 15 -15 8 0 15 7 15 15 0 8 -7 15 -15 15 -8
0 -15 -7 -15 -15z"/>
<path d="M11877 7274 c-4 -4 -7 -18 -7 -31 0 -16 6 -23 20 -23 11 0 20 7 20
15 0 8 7 15 16 15 9 0 14 6 12 13 -5 13 -50 22 -61 11z"/>
<path d="M12176 7243 c-11 -11 -6 -23 9 -23 8 0 15 4 15 9 0 13 -16 22 -24 14z"/>
<path d="M12100 7181 c0 -25 4 -31 21 -31 16 0 20 5 17 27 -2 17 -10 29 -20
31 -14 3 -18 -3 -18 -27z"/>
<path d="M12200 7180 c0 -20 -5 -30 -15 -30 -8 0 -15 -7 -15 -15 0 -8 7 -15
15 -15 8 0 15 -9 15 -20 0 -11 -7 -20 -15 -20 -8 0 -15 7 -15 15 0 8 -6 15
-14 15 -8 0 -16 -7 -20 -15 -3 -8 -12 -15 -21 -15 -8 0 -15 7 -15 15 0 8 -7
15 -15 15 -10 0 -15 -10 -15 -30 0 -28 3 -30 35 -30 24 0 35 -5 35 -15 0 -8 6
-15 14 -15 7 0 16 -9 19 -21 8 -29 27 -14 27 22 0 27 3 29 35 29 33 0 35 -2
35 -35 0 -24 -5 -35 -15 -35 -10 0 -15 -10 -15 -30 0 -20 5 -30 15 -30 10 0
15 10 15 29 0 16 6 31 15 35 8 3 15 12 15 21 0 8 7 15 15 15 8 0 15 7 15 15 0
8 -7 15 -15 15 -8 0 -15 6 -15 14 0 9 -12 16 -32 18 -29 3 -33 7 -36 36 -3 27
0 32 17 32 12 0 21 -7 21 -15 0 -10 10 -15 30 -15 20 0 30 5 30 15 0 9 -9 15
-25 15 -15 0 -38 12 -55 30 -16 17 -34 30 -40 30 -5 0 -10 -13 -10 -30z"/>
<path d="M11580 7050 c0 -20 5 -30 15 -30 8 0 15 -9 15 -20 0 -11 -7 -20 -15
-20 -8 0 -15 -7 -15 -15 0 -8 7 -15 15 -15 8 0 15 -7 15 -15 0 -8 7 -15 15
-15 12 0 15 14 15 65 0 51 -3 65 -15 65 -8 0 -15 7 -15 15 0 8 -7 15 -15 15
-10 0 -15 -10 -15 -30z"/>
<path d="M12370 7035 c0 -8 7 -15 15 -15 8 0 15 7 15 15 0 8 -7 15 -15 15 -8
0 -15 -7 -15 -15z"/>
<path d="M11680 6970 c0 -49 1 -50 30 -50 27 0 30 3 30 30 0 19 -5 30 -14 30
-7 0 -16 9 -19 20 -10 39 -27 20 -27 -30z"/>
<path d="M12340 6989 c0 -22 -5 -32 -20 -36 -25 -7 -29 -63 -5 -63 8 0 15 7
15 15 0 8 9 15 20 15 11 0 20 -7 20 -15 0 -8 7 -15 15 -15 24 0 20 56 -5 63
-15 4 -20 14 -20 36 0 17 -4 31 -10 31 -5 0 -10 -14 -10 -31z"/>
<path d="M11747 6914 c-15 -16 -5 -24 29 -24 24 0 34 4 32 13 -5 13 -50 22
-61 11z"/>
<path d="M11580 6864 c0 -9 5 -14 12 -12 18 6 21 28 4 28 -9 0 -16 -7 -16 -16z"/>
<path d="M11640 6836 c0 -35 4 -45 20 -49 11 -3 20 -12 20 -21 0 -23 21 -20
27 4 3 11 12 20 19 20 8 0 14 7 14 15 0 10 11 15 35 15 24 0 35 -5 35 -15 0
-10 10 -15 30 -15 20 0 30 5 30 15 0 8 9 15 20 15 11 0 20 7 20 15 0 8 -9 15
-20 15 -11 0 -20 7 -20 15 0 8 -7 15 -15 15 -10 0 -15 -10 -15 -30 0 -32 -23
-42 -34 -15 -4 11 -22 15 -71 15 -51 0 -65 3 -65 15 0 8 -7 15 -15 15 -11 0
-15 -12 -15 -44z"/>
<path d="M12100 6850 c0 -32 26 -43 36 -15 4 8 12 15 20 15 8 0 14 -7 14 -15
0 -8 -6 -15 -14 -15 -9 0 -16 -12 -18 -32 -3 -34 -38 -55 -38 -24 0 9 -7 16
-15 16 -12 0 -15 -13 -15 -60 0 -47 3 -60 15 -60 10 0 15 10 15 30 0 28 3 30
35 30 24 0 35 -5 35 -15 0 -8 7 -15 15 -15 8 0 15 7 15 15 0 8 -7 15 -15 15
-10 0 -15 11 -15 35 0 24 5 35 15 35 10 0 15 10 15 30 0 20 -5 30 -15 30 -8 0
-15 7 -15 15 0 10 -11 15 -35 15 -32 0 -35 -2 -35 -30z"/>
<path d="M4447 6829 c-23 -32 -22 -36 20 -97 31 -45 34 -55 22 -66 -8 -8 -390
-273 -849 -590 -459 -318 -836 -581 -838 -586 -6 -16 50 -90 62 -83 6 4 390
269 854 590 464 321 846 583 850 583 4 -1 23 -24 42 -53 39 -58 74 -72 101
-40 18 20 109 275 109 302 0 42 -28 50 -196 57 l-161 7 -16 -24z"/>
<path d="M11940 6805 c0 -8 7 -15 15 -15 8 0 15 7 15 15 0 8 -7 15 -15 15 -8
0 -15 -7 -15 -15z"/>
<path d="M12760 6805 c0 -8 7 -15 15 -15 8 0 15 7 15 15 0 8 -7 15 -15 15 -8
0 -15 -7 -15 -15z"/>
<path d="M11580 6768 c0 -13 8 -18 30 -18 19 0 30 5 30 14 0 8 -13 16 -30 18
-24 4 -30 1 -30 -14z"/>
<path d="M11743 6768 c2 -7 16 -13 32 -13 16 0 30 6 33 13 2 8 -8 12 -33 12
-25 0 -35 -4 -32 -12z"/>
<path d="M11840 6720 c0 -20 5 -30 15 -30 8 0 15 6 15 14 0 7 9 16 20 19 33 8
23 27 -15 27 -32 0 -35 -2 -35 -30z"/>
<path d="M11580 6605 l0 -115 115 0 116 0 -3 113 -3 112 -112 3 -113 3 0 -116z
m190 0 l0 -85 -80 0 -80 0 0 85 0 85 80 0 80 0 0 -85z"/>
<path d="M11640 6605 l0 -45 50 0 50 0 0 45 0 45 -50 0 -50 0 0 -45z"/>
<path d="M12730 6705 c0 -8 7 -15 15 -15 8 0 15 7 15 15 0 8 -7 15 -15 15 -8
0 -15 -7 -15 -15z"/>
<path d="M12437 6683 c-11 -10 -8 -20 8 -27 10 -4 15 1 15 14 0 20 -11 26 -23
13z"/>
<path d="M12767 6683 c-11 -10 -8 -20 8 -27 10 -4 15 1 15 14 0 20 -11 26 -23
13z"/>
<path d="M12103 6638 c2 -7 10 -13 17 -13 7 0 15 6 18 13 2 7 -5 12 -18 12
-13 0 -20 -5 -17 -12z"/>
<path d="M12270 6605 c0 -10 10 -15 30 -15 20 0 30 5 30 15 0 10 -10 15 -30
15 -20 0 -30 -5 -30 -15z"/>
<path d="M12340 6555 c0 -19 5 -35 10 -35 6 0 10 16 10 35 0 19 -4 35 -10 35
-5 0 -10 -16 -10 -35z"/>
<path d="M1290 6270 l-365 -290 -113 0 -112 0 -11 -27 c-6 -16 -9 -70 -7 -121
4 -116 9 -122 120 -122 l78 0 0 -45 c0 -48 16 -65 64 -65 l26 0 0 -315 0 -315
-28 0 c-43 0 -61 -19 -64 -70 l-3 -45 -88 -3 c-84 -3 -88 -4 -97 -28 -13 -33
-13 -175 0 -208 l10 -26 974 0 c954 0 976 0 986 19 15 28 13 203 -2 224 -10
13 -33 17 -103 19 l-90 3 -3 45 c-3 51 -21 70 -64 70 l-28 0 0 315 0 315 26 0
c48 0 64 17 64 65 l0 45 85 0 c118 0 125 8 125 136 0 136 2 134 -133 134
l-112 0 -365 290 c-205 163 -374 290 -385 290 -11 0 -184 -130 -385 -290z
m685 -50 c156 -124 284 -228 285 -232 0 -5 -263 -8 -585 -8 -322 0 -585 3
-584 8 0 13 574 462 587 459 7 -1 140 -103 297 -227z m595 -370 l0 -40 -895 0
-895 0 0 40 0 40 895 0 895 0 0 -40z m-1320 -150 c0 -6 -53 -10 -140 -10 -87
0 -140 4 -140 10 0 6 53 10 140 10 87 0 140 -4 140 -10z m740 -25 c0 -44 29
-75 70 -75 l30 0 0 -315 0 -315 -30 0 c-43 0 -70 -31 -70 -80 l0 -40 -320 0
-320 0 0 40 c0 49 -27 80 -70 80 l-30 0 0 315 0 315 30 0 c41 0 70 31 70 75
l0 35 320 0 320 0 0 -35z m380 25 c0 -6 -53 -10 -140 -10 -87 0 -140 4 -140
10 0 6 53 10 140 10 87 0 140 -4 140 -10z m-1210 -415 l0 -315 -45 0 -45 0 0
315 0 315 45 0 45 0 0 -315z m1110 0 l0 -315 -45 0 -45 0 0 315 0 315 45 0 45
0 0 -315z m-1020 -425 c0 -6 -53 -10 -140 -10 -87 0 -140 4 -140 10 0 6 53 10
140 10 87 0 140 -4 140 -10z m1120 0 c0 -6 -53 -10 -140 -10 -87 0 -140 4
-140 10 0 6 53 10 140 10 87 0 140 -4 140 -10z m200 -140 l0 -40 -895 0 -895
0 0 40 0 40 895 0 895 0 0 -40z"/>
<path d="M17620 6235 l0 -325 -52 0 c-67 0 -102 -17 -106 -52 -2 -20 19 -55
90 -149 129 -172 126 -172 252 -3 53 70 96 135 96 144 0 39 -25 54 -99 58
l-71 4 0 324 0 324 -55 0 -55 0 0 -325z"/>
<path d="M11870 6535 c0 -8 -7 -15 -15 -15 -8 0 -15 -7 -15 -15 0 -10 11 -15
35 -15 32 0 35 2 35 30 0 23 -4 30 -20 30 -11 0 -20 -7 -20 -15z"/>
<path d="M12463 6538 c2 -7 10 -13 17 -13 7 0 15 6 18 13 2 7 -5 12 -18 12
-13 0 -20 -5 -17 -12z"/>
<path d="M12630 6535 c0 -8 -7 -15 -15 -15 -8 0 -15 -7 -15 -15 0 -8 7 -15 15
-15 8 0 15 7 15 15 0 8 7 15 15 15 8 0 15 7 15 15 0 8 -7 15 -15 15 -8 0 -15
-7 -15 -15z"/>
<path d="M12040 6505 c0 -8 7 -15 15 -15 8 0 15 7 15 15 0 8 -7 15 -15 15 -8
0 -15 -7 -15 -15z"/>
<path d="M12370 6505 c0 -8 7 -15 15 -15 8 0 15 7 15 15 0 8 -7 15 -15 15 -8
0 -15 -7 -15 -15z"/>
<path d="M14450 5940 c0 -103 1 -110 20 -110 19 0 20 7 20 110 0 103 -1 110
-20 110 -19 0 -20 -7 -20 -110z"/>
<path d="M14550 5940 c0 -103 1 -110 20 -110 17 0 20 7 20 40 0 39 1 40 35 40
41 0 85 36 85 70 0 12 -11 32 -25 45 -20 21 -34 25 -80 25 l-55 0 0 -110z
m110 40 c0 -28 -3 -30 -35 -30 -32 0 -35 2 -35 30 0 28 3 30 35 30 32 0 35 -2
35 -30z"/>
<path d="M14750 5940 c0 -103 1 -110 20 -110 17 0 20 7 20 45 l0 45 45 0 c33
0 45 4 45 15 0 11 -12 15 -45 15 -43 0 -45 1 -45 30 0 29 1 30 51 30 43 0 50
3 47 18 -3 14 -16 18 -71 20 l-67 3 0 -111z"/>
<path d="M14935 6025 c-43 -42 -27 -76 45 -100 53 -18 63 -37 30 -55 -15 -8
-27 -7 -51 6 -24 12 -34 13 -43 4 -19 -19 29 -50 79 -50 53 0 78 24 73 71 -3
35 -25 52 -80 64 -20 4 -28 11 -28 26 0 20 4 21 45 17 50 -6 69 7 40 29 -30
21 -83 16 -110 -12z"/>
<path d="M16797 5164 c-25 -25 8 -70 43 -59 32 10 24 59 -10 63 -14 2 -29 0
-33 -4z"/>
<path d="M17080 5109 c0 -48 -3 -59 -12 -52 -45 35 -120 13 -143 -41 -27 -64
-10 -152 33 -175 30 -16 83 -13 104 6 17 15 18 15 18 0 0 -12 9 -17 30 -17
l30 0 0 170 0 170 -30 0 -30 0 0 -61z m-12 -101 c7 -7 12 -33 12 -58 0 -53
-13 -70 -51 -70 -35 0 -54 24 -54 70 0 21 7 45 14 54 16 19 62 21 79 4z"/>
<path d="M17624 5105 c-49 -24 -244 -210 -244 -233 0 -14 28 -42 42 -42 6 0
59 47 118 105 112 109 137 125 197 125 32 0 46 -9 115 -78 74 -75 78 -81 78
-123 0 -64 -34 -111 -187 -261 -104 -101 -138 -128 -172 -138 -23 -6 -52 -8
-64 -4 -12 3 -54 37 -93 75 -74 71 -93 80 -114 54 -19 -23 -4 -49 69 -118 77
-72 122 -92 187 -83 74 10 113 39 270 198 136 138 154 159 168 208 19 64 19
64 5 115 -13 47 -146 190 -196 211 -51 22 -122 17 -179 -11z"/>
<path d="M16230 4979 c0 -86 9 -125 34 -141 19 -13 84 -9 100 7 8 8 17 15 20
15 3 0 6 -7 6 -15 0 -9 9 -15 25 -15 l25 0 0 120 0 120 -30 0 -30 0 0 -83 c0
-91 -8 -107 -51 -107 -34 0 -39 13 -39 111 l0 79 -30 0 -30 0 0 -91z"/>
<path d="M16510 4979 c0 -86 9 -125 34 -141 19 -13 84 -9 100 7 8 8 17 15 20
15 3 0 6 -7 6 -15 0 -9 9 -15 25 -15 l25 0 0 120 0 120 -30 0 -30 0 0 -83 c0
-91 -8 -107 -51 -107 -34 0 -39 13 -39 111 l0 79 -30 0 -30 0 0 -91z"/>
<path d="M16790 4950 l0 -120 35 0 35 0 0 120 0 120 -35 0 -35 0 0 -120z"/>
<path d="M17265 4751 c-62 -36 -305 -282 -332 -336 -54 -107 -39 -161 74 -276
93 -95 138 -118 210 -104 64 12 105 40 212 148 85 86 102 108 96 126 -13 41
-45 24 -154 -82 -157 -153 -199 -158 -319 -33 -77 79 -86 106 -62 173 13 32
281 307 322 329 15 8 46 14 69 14 37 0 47 -6 113 -70 40 -38 79 -70 87 -70 19
0 39 20 39 37 0 20 -89 112 -139 145 -64 40 -145 40 -216 -1z"/>
<path d="M18156 4497 c-11 -8 -17 -23 -14 -38 2 -20 8 -24 38 -24 30 0 36 4
38 24 4 22 -18 51 -38 51 -3 0 -14 -6 -24 -13z"/>
<path d="M18470 4435 l0 -65 -35 17 c-32 15 -40 16 -77 3 -87 -31 -107 -171
-36 -247 27 -29 102 -32 130 -6 17 15 18 15 18 0 0 -13 9 -17 35 -17 l35 0 0
190 0 190 -35 0 -35 0 0 -65z m-18 -112 c27 -24 25 -106 -3 -134 -15 -15 -28
-19 -47 -14 -38 9 -44 18 -50 73 -4 41 -1 53 17 71 25 25 58 27 83 4z"/>
<path d="M17920 4383 c-64 -33 -89 -126 -54 -199 21 -44 60 -64 124 -64 41 0
56 5 75 25 30 29 32 51 6 65 -16 8 -25 5 -45 -15 -31 -31 -50 -32 -81 0 -69
68 9 191 79 126 21 -20 21 -20 46 -1 l25 19 -26 27 c-35 35 -100 42 -149 17z"/>
<path d="M18150 4255 l0 -135 35 0 35 0 0 135 0 135 -35 0 -35 0 0 -135z"/>
<path d="M16470 3788 c0 -33 -3 -39 -12 -30 -35 35 -98 -2 -98 -58 0 -56 63
-93 98 -58 9 9 12 9 12 0 0 -7 5 -12 10 -12 6 0 10 40 10 100 0 60 -4 100 -10
100 -5 0 -10 -19 -10 -42z m-8 -63 c16 -36 -3 -75 -37 -75 -34 0 -53 39 -37
75 8 17 20 25 37 25 17 0 29 -8 37 -25z"/>
<path d="M16010 3747 c0 -91 15 -117 69 -117 58 0 71 21 71 113 0 45 -4 77
-10 77 -6 0 -10 -31 -10 -73 0 -80 -9 -97 -52 -97 -37 0 -48 24 -48 104 0 37
-4 66 -10 66 -6 0 -10 -31 -10 -73z"/>
<path d="M17017 3802 c-10 -10 -17 -25 -17 -34 0 -19 32 -48 52 -48 9 0 26 -8
39 -19 20 -16 21 -21 10 -35 -16 -19 -62 -21 -79 -4 -6 6 -15 8 -19 4 -13 -12
28 -36 62 -36 40 0 70 30 61 63 -5 23 -42 47 -70 47 -8 0 -19 7 -26 15 -10 12
-10 18 0 30 14 17 56 20 65 5 4 -6 11 -7 17 -4 16 10 -21 34 -52 34 -15 0 -34
-8 -43 -18z"/>
<path d="M17855 3795 c-33 -32 -35 -100 -4 -139 26 -33 86 -37 114 -6 23 25
12 39 -13 17 -44 -40 -102 -6 -102 60 0 58 68 97 100 58 7 -8 17 -12 23 -8 17
10 -32 43 -65 43 -17 0 -39 -10 -53 -25z"/>
<path d="M16690 3786 c0 -8 -6 -17 -12 -20 -10 -5 -10 -7 0 -12 7 -3 12 -24
12 -49 0 -61 8 -75 41 -75 34 0 39 17 7 22 -20 3 -23 10 -26 51 -3 41 -1 47
17 47 11 0 23 5 26 10 4 6 -5 10 -19 10 -16 0 -26 6 -26 15 0 8 -4 15 -10 15
-5 0 -10 -6 -10 -14z"/>
<path d="M17670 3785 c0 -8 -7 -15 -15 -15 -8 0 -15 -4 -15 -10 0 -5 7 -10 15
-10 10 0 15 -15 17 -57 3 -55 4 -58 31 -61 15 -2 27 1 27 7 0 6 -9 11 -20 11
-17 0 -20 7 -20 50 0 43 3 50 20 50 11 0 20 5 20 10 0 6 -9 10 -20 10 -11 0
-20 7 -20 15 0 8 -4 15 -10 15 -5 0 -10 -7 -10 -15z"/>
<path d="M18350 3785 c0 -8 -7 -15 -15 -15 -8 0 -15 -4 -15 -10 0 -5 7 -10 15
-10 10 0 15 -15 17 -57 3 -55 4 -58 31 -61 15 -2 27 1 27 7 0 6 -9 11 -20 11
-17 0 -20 7 -20 50 0 43 3 50 20 50 11 0 20 5 20 10 0 6 -9 10 -20 10 -11 0
-20 7 -20 15 0 8 -4 15 -10 15 -5 0 -10 -7 -10 -15z"/>
<path d="M18850 3786 c0 -8 -6 -17 -12 -20 -10 -5 -10 -7 0 -12 6 -3 12 -23
12 -45 0 -53 15 -79 45 -79 31 0 33 17 3 22 -20 3 -23 10 -26 51 -3 45 -2 47
22 47 15 0 26 5 26 10 0 6 -11 10 -25 10 -16 0 -25 6 -25 15 0 8 -4 15 -10 15
-5 0 -10 -6 -10 -14z"/>
<path d="M16200 3670 c0 -60 4 -100 10 -100 6 0 10 19 10 42 0 33 3 39 12 30
35 -35 98 2 98 58 0 56 -63 93 -98 58 -9 -9 -12 -9 -12 0 0 7 -4 12 -10 12 -6
0 -10 -40 -10 -100z m98 68 c7 -7 12 -24 12 -38 0 -52 -61 -71 -82 -25 -23 51
32 101 70 63z"/>
<path d="M16545 3759 c-11 -16 1 -22 23 -10 14 7 24 7 38 -4 18 -13 17 -14
-11 -25 -51 -21 -60 -27 -63 -44 -8 -37 48 -62 75 -35 8 8 13 8 17 0 4 -6 15
-11 24 -11 12 0 13 3 4 12 -7 7 -12 29 -12 51 0 57 -14 77 -55 77 -18 0 -37
-5 -40 -11z m75 -68 c0 -21 -36 -52 -53 -46 -22 9 -22 31 1 44 21 13 52 14 52
2z"/>
<path d="M16799 3754 c-21 -25 -17 -93 6 -110 23 -17 67 -18 83 -2 17 17 15
33 -2 19 -24 -20 -70 -10 -74 17 -3 20 1 22 42 22 41 0 46 2 46 23 0 13 -5 28
-12 35 -17 17 -73 15 -89 -4z m69 -6 c23 -23 13 -38 -23 -38 -39 0 -48 21 -17
39 22 13 26 13 40 -1z"/>
<path d="M17170 3698 c0 -39 4 -68 10 -68 6 0 10 25 10 55 0 42 4 56 18 63 32
17 42 3 42 -59 0 -33 4 -59 10 -59 6 0 10 20 10 45 0 32 6 51 21 66 31 31 49
10 49 -57 0 -30 5 -54 10 -54 11 0 14 98 4 124 -7 18 -59 22 -69 6 -5 -8 -11
-8 -19 0 -7 5 -32 9 -55 8 l-41 -1 0 -69z"/>
<path d="M17409 3754 c-13 -15 -12 -16 11 -9 14 4 27 7 30 7 41 1 41 -30 0
-38 -37 -8 -53 -26 -48 -56 4 -27 50 -37 74 -17 10 8 14 8 14 0 0 -6 7 -11 15
-11 8 0 15 5 15 10 0 6 -4 10 -10 10 -5 0 -10 26 -12 58 l-3 57 -36 3 c-24 2
-40 -2 -50 -14z m71 -74 c0 -21 -27 -40 -47 -33 -7 3 -13 13 -13 23 0 19 13
28 43 29 10 1 17 -6 17 -19z"/>
<path d="M17550 3700 c0 -40 4 -70 10 -70 6 0 10 18 10 41 0 50 15 79 40 79
11 0 20 5 20 10 0 14 -33 13 -48 -2 -9 -9 -12 -9 -12 0 0 7 -4 12 -10 12 -6 0
-10 -30 -10 -70z"/>
<path d="M18026 3754 c-22 -22 -21 -87 2 -107 19 -18 59 -22 79 -9 22 14 33
60 22 89 -6 15 -16 31 -22 35 -20 13 -65 9 -81 -8z m79 -54 c0 -45 0 -45 -35
-45 -32 0 -35 2 -38 33 -5 52 3 64 40 60 32 -3 33 -5 33 -48z"/>
<path d="M18180 3698 c0 -39 4 -68 10 -68 6 0 10 25 10 55 0 43 4 56 19 65 37
19 51 3 51 -61 0 -33 4 -59 10 -59 12 0 13 109 2 127 -5 8 -27 12 -55 11 l-47
-2 0 -68z"/>
<path d="M18450 3698 c0 -82 18 -91 22 -11 3 49 6 58 23 61 41 8 39 22 -3 20
l-42 -1 0 -69z"/>
<path d="M18560 3760 c-21 -13 -7 -22 21 -12 13 5 30 7 37 5 25 -9 11 -30 -27
-42 -43 -12 -56 -33 -41 -61 8 -16 21 -19 65 -18 30 1 55 5 55 10 0 4 -4 8
-10 8 -5 0 -10 20 -10 44 0 24 -3 51 -6 60 -7 18 -60 22 -84 6z m70 -80 c0
-21 -34 -45 -50 -35 -14 9 -12 42 3 48 28 12 47 7 47 -13z"/>
<path d="M18706 3748 c-36 -51 -8 -118 48 -118 19 0 39 7 46 15 16 19 5 34
-12 17 -38 -38 -93 12 -70 63 12 26 54 35 67 15 4 -6 11 -8 16 -4 19 11 -13
34 -47 34 -23 0 -38 -7 -48 -22z"/>
<path d="M1624 3303 c-106 -149 -271 -298 -437 -395 -74 -43 -258 -120 -315
-133 -18 -3 -36 -14 -41 -23 -15 -30 -21 -253 -11 -389 42 -546 287 -959 747
-1257 56 -36 106 -66 109 -66 4 0 64 38 133 84 431 289 666 676 721 1188 11
105 12 283 1 387 l-6 65 -45 11 c-146 39 -330 131 -475 240 -88 67 -217 202
-277 291 -24 35 -46 64 -50 64 -3 0 -28 -30 -54 -67z m125 -344 c117 -151 313
-277 521 -334 52 -15 101 -28 108 -30 16 -5 15 -32 -3 -187 -55 -470 -227
-808 -530 -1043 -96 -74 -146 -105 -170 -105 -29 0 -173 102 -262 185 -207
193 -344 456 -408 789 -27 136 -49 347 -37 356 4 4 45 17 92 29 104 27 245 88
326 141 82 54 180 145 234 219 24 33 50 61 56 61 6 0 39 -36 73 -81z"/>
<path d="M1621 2918 c-113 -148 -327 -280 -546 -337 l-70 -19 3 -58 c1 -33 10
-106 18 -164 67 -459 260 -790 587 -1006 l59 -38 44 25 c74 42 211 157 273
229 200 232 309 508 352 893 7 63 8 111 3 116 -5 4 -40 15 -77 25 -101 25
-234 85 -329 149 -75 50 -194 161 -243 229 l-20 26 -54 -70z m139 -408 l82
-150 146 0 146 0 -69 -72 c-39 -40 -88 -92 -109 -115 l-39 -42 42 -162 c23
-89 40 -164 37 -166 -3 -3 -76 32 -163 77 l-158 83 -160 -85 c-88 -47 -161
-84 -163 -83 -1 1 18 78 42 171 l44 169 -111 112 -111 112 149 3 149 3 80 147
c45 81 82 148 83 148 1 0 38 -67 83 -150z"/>
<path d="M15873 3252 c-46 -25 -186 -206 -298 -384 -27 -43 -54 -78 -60 -78
-6 0 -21 23 -32 50 -17 41 -26 50 -46 50 -33 0 -77 -36 -77 -64 0 -27 45 -163
60 -181 15 -18 66 -26 95 -15 15 6 45 40 72 82 76 117 188 272 294 406 54 69
99 131 99 138 0 20 -68 17 -107 -4z"/>
<path d="M15468 3206 c-98 -35 -175 -102 -225 -198 -26 -49 -28 -62 -28 -163
0 -100 3 -115 27 -166 38 -76 109 -146 188 -183 58 -27 75 -31 155 -31 80 0
97 4 157 32 212 100 288 353 167 550 -21 34 -22 34 -41 16 -19 -19 -18 -20 9
-73 25 -48 28 -65 28 -145 0 -75 -4 -98 -25 -140 -57 -116 -167 -185 -295
-185 -128 0 -231 63 -287 178 -29 59 -33 76 -33 147 1 59 6 92 22 127 30 66
95 133 162 165 47 23 69 28 136 28 47 0 94 -6 114 -14 31 -13 35 -13 48 5 12
16 11 20 -4 31 -45 34 -204 44 -275 19z"/>
<path d="M6778 3029 l-3 -80 -86 -33 c-148 -55 -248 -135 -291 -233 -27 -62
-22 -215 9 -285 42 -92 137 -158 284 -196 l74 -19 3 -142 c1 -77 -1 -141 -6
-141 -5 0 -24 10 -43 23 -30 20 -77 96 -93 150 -5 15 -20 17 -136 17 -129 0
-130 0 -130 -23 0 -34 29 -125 57 -182 50 -98 193 -208 321 -246 l42 -12 0
-84 0 -83 125 0 125 0 0 83 0 84 50 11 c146 34 295 144 347 259 22 49 27 73
27 148 1 64 -4 103 -17 137 -20 52 -92 125 -154 157 -31 15 -232 81 -249 81
-2 0 -4 59 -4 131 l0 130 23 -7 c41 -12 75 -44 96 -87 12 -24 21 -49 21 -55 0
-9 37 -12 130 -12 l130 0 0 29 c0 46 -37 153 -71 204 -51 78 -156 145 -283
182 l-57 17 1 41 c1 23 1 59 1 80 l-1 37 -120 0 -119 0 -3 -81z m2 -459 c0
-81 -3 -110 -12 -110 -34 0 -89 23 -103 43 -20 28 -19 87 1 116 14 20 84 60
107 61 4 0 7 -49 7 -110z m343 -445 c48 -20 77 -59 77 -105 0 -57 -55 -107
-137 -125 l-33 -7 0 126 0 126 29 0 c16 0 44 -7 64 -15z"/>
<path d="M14613 3040 c-33 -13 -37 -44 -13 -107 11 -31 17 -59 13 -63 -4 -4
-336 -125 -738 -269 -401 -144 -733 -265 -737 -269 -7 -7 23 -102 32 -102 3 0
338 121 745 268 l740 269 17 -41 c35 -81 42 -91 75 -94 30 -3 35 2 113 118 44
66 85 131 90 144 16 43 -10 61 -153 106 -167 52 -158 50 -184 40z"/>
<path d="M11940 2671 c-80 -17 -120 -64 -120 -143 0 -47 -1 -48 -30 -48 -29 0
-30 -1 -30 -50 l0 -50 35 0 35 0 0 -190 0 -190 60 0 60 0 0 190 0 190 65 0 65
0 0 50 0 50 -70 0 -70 0 0 35 c0 47 34 71 87 59 21 -4 42 -8 47 -8 5 -1 15 18
22 42 12 41 11 44 -10 52 -36 13 -108 19 -146 11z"/>
<path d="M11560 2643 c-38 -49 -7 -107 56 -107 64 0 97 71 54 114 -30 30 -83
27 -110 -7z"/>
<path d="M5427 2482 c-12 -13 -17 -37 -17 -80 l0 -62 -1227 -2 -1228 -3 -3
-52 -3 -53 1230 0 1231 0 0 -63 c0 -35 6 -70 13 -79 30 -39 50 -32 186 67 121
89 131 99 131 129 0 30 -10 39 -125 124 -129 95 -159 107 -188 74z"/>
<path d="M9286 2484 c-11 -11 -16 -34 -16 -78 l0 -63 -187 -6 c-104 -4 -387
-7 -630 -7 l-443 0 0 -56 0 -57 630 5 630 5 0 -68 c0 -59 3 -70 22 -83 12 -9
29 -16 37 -16 14 0 248 173 263 195 25 34 8 56 -119 150 -71 52 -138 95 -150
95 -12 0 -29 -7 -37 -16z"/>
<path d="M10104 2458 c3 -13 41 -120 85 -238 l79 -215 73 0 73 0 82 220 c46
121 83 228 83 238 1 16 -6 18 -56 15 l-57 -3 -58 -164 c-56 -159 -64 -179 -71
-170 -2 2 -30 79 -61 172 l-58 167 -60 0 c-57 0 -60 -1 -54 -22z"/>
<path d="M10770 2464 c-75 -33 -117 -98 -127 -197 -12 -130 45 -231 149 -262
99 -29 178 -15 241 44 46 43 45 58 -5 85 l-34 19 -26 -26 c-32 -32 -85 -43
-132 -27 -37 12 -59 38 -70 82 l-6 27 157 3 158 3 3 47 c6 93 -36 176 -105
204 -43 18 -159 17 -203 -2z m165 -99 c14 -13 25 -36 25 -50 l0 -25 -95 0
c-90 0 -95 1 -95 21 0 11 13 34 29 50 39 39 100 41 136 4z"/>
<path d="M11187 2473 c-4 -3 -7 -111 -7 -240 l0 -233 60 0 60 0 0 123 c1 147
10 194 46 225 21 19 36 23 73 20 l46 -3 9 49 c10 56 2 66 -58 66 -31 0 -45 -7
-77 -39 l-39 -39 0 39 0 39 -53 0 c-30 0 -57 -3 -60 -7z"/>
<path d="M11560 2240 l0 -240 60 0 60 0 -2 238 -3 237 -57 3 -58 3 0 -241z"/>
<path d="M12100 2476 c0 -3 41 -112 92 -243 50 -131 91 -247 90 -257 0 -11
-13 -31 -27 -45 -22 -22 -34 -26 -84 -25 l-59 1 -7 -44 c-3 -25 -4 -47 -1 -50
10 -10 104 -16 141 -9 43 8 99 56 124 105 26 49 211 541 211 558 0 11 -14 13
-57 11 l-57 -3 -55 -162 c-31 -90 -60 -162 -65 -160 -5 2 -34 75 -66 162 l-57
160 -61 3 c-34 2 -62 1 -62 -2z"/>
<path d="M13151 2103 c-7 -21 -14 -43 -17 -49 -3 -7 280 -114 733 -279 406
-147 742 -271 746 -275 4 -4 -2 -31 -13 -60 -25 -63 -20 -97 15 -110 19 -7 55
0 157 31 73 22 143 47 155 55 41 26 33 52 -60 192 -85 128 -89 133 -120 130
-33 -3 -40 -12 -75 -94 l-17 -40 -730 267 c-401 147 -737 268 -746 268 -10 1
-21 -13 -28 -36z"/>
<path d="M15554 1800 c-119 -24 -252 -130 -305 -244 -123 -263 16 -558 298
-631 225 -59 463 77 533 303 37 118 20 257 -43 364 -32 54 -121 139 -175 167
-89 46 -206 61 -308 41z m270 -68 c85 -40 158 -113 199 -200 30 -62 32 -75 32
-172 0 -97 -2 -110 -32 -172 -41 -88 -113 -160 -201 -201 -62 -29 -75 -32
-167 -32 -130 1 -192 24 -279 106 -174 162 -179 423 -13 589 49 49 127 95 190
111 18 4 71 7 119 5 71 -3 98 -9 152 -34z"/>
<path d="M15432 1578 l-42 -43 87 -87 88 -88 -88 -88 -87 -87 42 -43 43 -42
87 87 88 88 90 -90 90 -89 40 39 c22 21 40 44 40 50 0 6 -38 48 -85 95 l-85
85 87 87 88 88 -43 42 -42 43 -88 -88 -87 -87 -85 85 c-47 47 -87 85 -90 85
-3 0 -24 -19 -48 -42z"/>
</g>
</svg>
